<?xml version="1.0" encoding="UTF-8" standalone="no"?>
<!DOCTYPE svg PUBLIC "-//W3C//DTD SVG 1.1//EN" "http://www.w3.org/Graphics/SVG/1.1/DTD/svg11.dtd">
<svg width="100%" height="100%" viewBox="0 0 500 500" version="1.1" xmlns="http://www.w3.org/2000/svg" xmlns:xlink="http://www.w3.org/1999/xlink" xml:space="preserve" xmlns:serif="http://www.serif.com/" style="fill-rule:evenodd;clip-rule:evenodd;stroke-linejoin:round;stroke-miterlimit:1.41421;">
    <g>
        <path d="M250,25C289.782,-0.587 347.83,21.643 366.804,54.108C403.302,116.557 419.361,109.377 446.111,136.552C474.887,165.785 489.345,301.382 458.927,328.415C435.648,349.104 435.576,361.192 430.445,380.218C422.034,411.407 352.307,437.387 327.62,461.12C293.317,494.099 165.052,497.669 154.988,455.314C147.996,425.889 73.931,320.244 37.438,300.544C-15.732,271.842 7.35,175.327 51.456,143.41C71.03,129.246 94.071,57.342 136.17,66.247C173.112,74.061 217.626,45.822 250,25Z" style="fill:url(#_Linear1);"/>
        <g transform="matrix(1.04191,0,0,1.04821,-6.96627,-9.92691)">
            <path d="M251.326,22.699C291.108,-2.888 349.161,17.249 368.134,49.714C404.632,112.163 417.926,112.833 444.677,140.008C473.452,169.24 490.95,302.581 460.532,329.614C437.253,350.302 430.583,354.88 427.61,380.148C423.837,412.22 353.872,438.658 329.185,462.392C294.882,495.371 159.23,493.95 153.198,450.844C148.861,419.846 77.768,318.866 37.438,300.544C-17.591,275.543 10.667,174.733 54.774,142.816C74.347,128.652 94.071,57.342 136.17,66.247C173.112,74.061 218.952,43.521 251.326,22.699Z" style="fill:url(#_Linear2);"/>
        </g>
    </g>
    <defs>
        <linearGradient id="_Linear1" x1="0" y1="0" x2="1" y2="0" gradientUnits="userSpaceOnUse" gradientTransform="matrix(489.09,484.78,-484.78,489.09,0.385371,1.6934)"><stop offset="0" style="stop-color:rgb(42,250,223);stop-opacity:1"/><stop offset="1" style="stop-color:rgb(76,131,255);stop-opacity:1"/></linearGradient>
        <linearGradient id="_Linear2" x1="0" y1="0" x2="1" y2="0" gradientUnits="userSpaceOnUse" gradientTransform="matrix(469.417,462.483,-465.28,466.595,7.05593,11.0858)"><stop offset="0" style="stop-color:rgb(42,250,223);stop-opacity:0.5"/><stop offset="1" style="stop-color:rgb(76,131,255);stop-opacity:0.5"/></linearGradient>
    </defs>
</svg>
