<?xml version="1.0" encoding="UTF-8" standalone="no"?>
<!DOCTYPE svg PUBLIC "-//W3C//DTD SVG 1.1//EN" "http://www.w3.org/Graphics/SVG/1.1/DTD/svg11.dtd">
<svg width="100%" height="100%" viewBox="0 0 200 30" version="1.1" xmlns="http://www.w3.org/2000/svg" xmlns:xlink="http://www.w3.org/1999/xlink" xml:space="preserve" xmlns:serif="http://www.serif.com/" style="fill-rule:evenodd;clip-rule:evenodd;stroke-linejoin:round;stroke-miterlimit:1.41421;">
    <g id="Base" transform="matrix(0.996112,-0.088094,0.088094,0.996112,-0.44047,19.7549)">
        <path d="M0,5C8.671,7.586 18.583,9.779 30.709,9.248C43.924,8.526 51.776,0.609 61.557,0.671C70.303,0.726 81.426,8.477 90.663,9.653C101.121,10.984 119.761,3.968 123.743,3.937C128.432,3.901 145.814,10.183 152.615,10.279C159.684,10.38 164.738,4.945 173.18,2.869C187.701,-0.702 192.709,5.206 200.501,8.162L198.759,27.863L-0.464,10.244L0,5" style="fill:white;"/>
    </g>
    <g id="Base1" serif:id="Base" transform="matrix(0.996112,-0.088094,0.088094,0.996112,-0.44047,17.0478)">
        <path d="M0,5C8.671,7.586 18.425,11.06 30.55,10.528C43.766,9.806 52.21,-0.537 61.991,-0.475C70.737,-0.42 81.608,9.622 90.845,10.798C101.303,12.129 119.84,3.052 123.636,3.036C128.326,3.017 145.756,11.339 152.558,11.436C159.626,11.537 164.86,3.375 173.302,1.299C187.822,-2.272 192.633,6.066 200.425,9.022L198.52,30.559L-0.702,12.941L0,5" style="fill:white;fill-opacity:0.501961;"/>
    </g>
</svg>
